<?xml version="1.0" encoding="utf-8"?>
<!-- Generator: Adobe Illustrator 18.1.0, SVG Export Plug-In . SVG Version: 6.00 Build 0)  -->
<svg version="1.1" id="Слой_1" xmlns="http://www.w3.org/2000/svg" xmlns:xlink="http://www.w3.org/1999/xlink" x="0px" y="0px"
	 viewBox="0 0 292 74" enable-background="new 0 0 292 74" xml:space="preserve">
<g>
	<path fill="#202021" d="M0.3,73.8V0.2H19v73.6H0.3z"/>
	<path fill="#202021" d="M105.5,73.8V0.2h18.7v73.6H105.5z"/>
	<path fill="#202021" d="M158,37.1V7.8h-10.2V0.2h29.8v7.6h-10.2v29.3H158z"/>
	<path fill="#202021" d="M209.3,37.1h-25.2V0.2h25.2v7.6h-15.9v7.3h14.9V22h-14.9v7.5h15.9V37.1z"/>
	<path fill="#202021" d="M279.9,37.1V22.2h-14.7v14.8h-9.4V0.2h9.4v14.4h14.7V0.2h9.3v36.8H279.9z"/>
	<path fill="#202021" d="M81.4,51.1C81.4,51.1,81.4,51.1,81.4,51.1c-3.6,3.5-8.5,5.7-13.9,5.7c-10.9,0-19.8-8.9-19.8-19.8
		s8.9-19.8,19.8-19.8c5.5,0,10.5,2.3,14.1,5.9l12-12c0,0,0,0,0,0C87,4.4,77.7,0.2,67.5,0.2C47.2,0.2,30.7,16.7,30.7,37
		s16.5,36.8,36.8,36.8c10.1,0,19.2-4.1,25.9-10.6c0,0,0,0,0,0L81.4,51.1z"/>
	<path fill="#202021" d="M241.5,25.7C241.5,25.7,241.5,25.7,241.5,25.7c-1.8,1.8-4.2,2.8-6.9,2.8c-5.5,0-9.9-4.4-9.9-9.9
		s4.4-9.9,9.9-9.9c2.8,0,5.3,1.1,7.1,3l6-6c0,0,0,0,0,0c-3.3-3.4-8-5.4-13.1-5.4c-10.2,0-18.4,8.2-18.4,18.4s8.2,18.4,18.4,18.4
		c5,0,9.6-2,12.9-5.3c0,0,0,0,0,0L241.5,25.7z"/>
</g>
</svg>
